<?xml version="1.0" encoding="UTF-8" standalone="no"?>
<svg
   xmlns:dc="http://purl.org/dc/elements/1.1/"
   xmlns:cc="http://creativecommons.org/ns#"
   xmlns:rdf="http://www.w3.org/1999/02/22-rdf-syntax-ns#"
   xmlns:svg="http://www.w3.org/2000/svg"
   xmlns="http://www.w3.org/2000/svg"
   xmlns:sodipodi="http://sodipodi.sourceforge.net/DTD/sodipodi-0.dtd"
   xmlns:inkscape="http://www.inkscape.org/namespaces/inkscape"
   width="100%"
   height="100%"
   id="svg2"
   version="1.1"
   inkscape:version="0.48.1 r9760"
   sodipodi:docname="radar.svg">
  <metadata
     id="metadata174">
    <rdf:RDF>
      <cc:Work
         rdf:about="">
        <dc:format>image/svg+xml</dc:format>
        <dc:type
           rdf:resource="http://purl.org/dc/dcmitype/StillImage" />
        <dc:title></dc:title>
      </cc:Work>
    </rdf:RDF>
  </metadata>
  <defs
     id="defs172" />
  <sodipodi:namedview
     pagecolor="#ffffff"
     bordercolor="#666666"
     borderopacity="1"
     objecttolerance="10"
     gridtolerance="10"
     guidetolerance="10"
     inkscape:pageopacity="0"
     inkscape:pageshadow="2"
     inkscape:window-width="1920"
     inkscape:window-height="1145"
     id="namedview170"
     showgrid="false"
     inkscape:zoom="0.99"
     inkscape:cx="372.04724"
     inkscape:cy="526.18109"
     inkscape:window-x="-4"
     inkscape:window-y="-3"
     inkscape:window-maximized="1"
     inkscape:current-layer="svg2" />
  <g
     id="g3038"
     inkscape:export-filename="/home/raph/Documents/Methodes/QSOS/Images/radar.png"
     inkscape:export-xdpi="100"
     inkscape:export-ydpi="100">
    <rect
       y="255.39249"
       x="136.36363"
       height="351.51514"
       width="538.38397"
       id="rect3036"
       style="fill:#ffffff;fill-opacity:1;stroke:none" />
    <g
       inkscape:export-ydpi="100"
       inkscape:export-xdpi="100"
       inkscape:export-filename="/home/raph/Documents/Methodes/QSOS/Images/radar.png"
       id="g3309">
      <g
         id="g3301"
         transform="translate(691.91919,182.82828)">
        <text
           y="133.83833"
           x="-109.59596"
           font-weight="bold"
           font-size="12"
           id="text6"
           style="font-size:12px;font-weight:bold;font-family:Verdana">
          <tspan
             id="tspan8"
             style="fill:#ff0000">Logiciel A</tspan>
        </text>
        <text
           id="text3233"
           y="149.64644"
           x="-109.29713"
           font-weight="bold"
           font-size="12"
           style="font-size:12px;font-weight:bold;font-family:Verdana">
          <tspan
             id="tspan3235"
             style="fill:#0000ff">Logiciel B</tspan>
        </text>
        <text
           id="text3240"
           y="165.45453"
           x="-109.08034"
           font-weight="bold"
           font-size="12"
           style="font-size:12px;font-weight:bold;font-family:Verdana">
          <tspan
             id="tspan3242"
             style="fill:#008000">Logiciel C</tspan>
        </text>
      </g>
      <text
         style="font-size:12px;font-weight:bold;font-family:Verdana"
         font-size="12"
         font-weight="bold"
         x="434.84848"
         y="293.43436"
         id="text3246">Maturité</text>
      <circle
         style="fill:none;stroke:#d3d3d3;stroke-width:1"
         sodipodi:ry="35"
         sodipodi:rx="35"
         sodipodi:cy="300"
         sodipodi:cx="500"
         d="m 535,300 c 0,19.32997 -15.67003,35 -35,35 -19.32997,0 -35,-15.67003 -35,-35 0,-19.32997 15.67003,-35 35,-35 19.32997,0 35,15.67003 35,35 z"
         id="circle26"
         r="35"
         cy="300"
         cx="500"
         transform="translate(-109.59596,133.83838)" />
      <text
         style="font-size:12px;fill:#d3d3d3;font-family:Verdana"
         id="text28"
         font-size="12"
         y="448.83838"
         x="400.40405">0.5</text>
      <circle
         style="fill:none;stroke:#d3d3d3;stroke-width:1"
         sodipodi:ry="70"
         sodipodi:rx="70"
         sodipodi:cy="300"
         sodipodi:cx="500"
         d="m 570,300 c 0,38.65993 -31.34007,70 -70,70 -38.65993,0 -70,-31.34007 -70,-70 0,-38.65993 31.34007,-70 70,-70 38.65993,0 70,31.34007 70,70 z"
         id="circle30"
         r="70"
         cy="300"
         cx="500"
         transform="translate(-109.59596,133.83838)" />
      <text
         style="font-size:12px;fill:#d3d3d3;font-family:Verdana"
         id="text32"
         font-size="12"
         y="448.83838"
         x="445.40405">1</text>
      <circle
         style="fill:none;stroke:#d3d3d3;stroke-width:1"
         sodipodi:ry="105"
         sodipodi:rx="105"
         sodipodi:cy="300"
         sodipodi:cx="500"
         d="m 605,300 c 0,57.9899 -47.0101,105 -105,105 -57.9899,0 -105,-47.0101 -105,-105 0,-57.9899 47.0101,-105 105,-105 57.9899,0 105,47.0101 105,105 z"
         id="circle34"
         r="105"
         cy="300"
         cx="500"
         transform="translate(-109.59596,133.83838)" />
      <text
         style="font-size:12px;fill:#d3d3d3;font-family:Verdana"
         id="text36"
         font-size="12"
         y="448.83838"
         x="470.40405">1.5</text>
      <circle
         style="fill:none;stroke:#d3d3d3;stroke-width:1"
         sodipodi:ry="140"
         sodipodi:rx="140"
         sodipodi:cy="300"
         sodipodi:cx="500"
         d="m 640,300 c 0,77.31986 -62.68014,140 -140,140 -77.31986,0 -140,-62.68014 -140,-140 0,-77.31986 62.68014,-140 140,-140 77.31986,0 140,62.68014 140,140 z"
         id="circle38"
         r="140"
         cy="300"
         cx="500"
         transform="translate(-109.59596,133.83838)" />
      <text
         style="font-size:12px;fill:#d3d3d3;font-family:Verdana"
         id="text40"
         font-size="12"
         y="448.83838"
         x="515.40405">2</text>
      <line
         style="stroke:#d3d3d3;stroke-width:1"
         id="line42"
         y2="566.98633"
         x2="433.66644"
         y1="433.83838"
         x1="390.40405" />
      <line
         style="stroke:#d3d3d3;stroke-width:1"
         id="line44"
         y2="516.12836"
         x2="277.14166"
         y1="433.83838"
         x1="390.40405" />
      <line
         style="stroke:#d3d3d3;stroke-width:1"
         id="line46"
         y2="351.54846"
         x2="277.14166"
         y1="433.83838"
         x1="390.40405" />
      <line
         style="stroke:#d3d3d3;stroke-width:1"
         id="line48"
         y2="300.69046"
         x2="433.66644"
         y1="433.83838"
         x1="390.40405" />
      <line
         style="stroke:#d3d3d3;stroke-width:1"
         id="line50"
         y2="433.83838"
         x2="530.40405"
         y1="433.83838"
         x1="390.40405" />
      <path
         style="fill:#ff0000;fill-opacity:0.2;stroke:#ff0000;stroke-width:3"
         inkscape:connector-curvature="0"
         id="path72"
         d="m 421.33664,529.03914 -101.72159,-43.76955 -4.53049,-106.15402 107.76626,-45.13812 60.65322,99.86093 z" />
      <circle
         style="fill:none;stroke:#d3d3d3;stroke-width:1"
         sodipodi:ry="35"
         sodipodi:rx="35"
         sodipodi:cy="300"
         sodipodi:cx="500"
         d="m 535,300 c 0,19.32997 -15.67003,35 -35,35 -19.32997,0 -35,-15.67003 -35,-35 0,-19.32997 15.67003,-35 35,-35 19.32997,0 35,15.67003 35,35 z"
         id="circle74"
         r="35"
         cy="300"
         cx="500"
         transform="translate(-109.59596,133.83838)" />
      <text
         style="font-size:12px;fill:#d3d3d3;font-family:Verdana"
         id="text76"
         font-size="12"
         y="448.83838"
         x="400.40405">0.5</text>
      <circle
         style="fill:none;stroke:#d3d3d3;stroke-width:1"
         sodipodi:ry="70"
         sodipodi:rx="70"
         sodipodi:cy="300"
         sodipodi:cx="500"
         d="m 570,300 c 0,38.65993 -31.34007,70 -70,70 -38.65993,0 -70,-31.34007 -70,-70 0,-38.65993 31.34007,-70 70,-70 38.65993,0 70,31.34007 70,70 z"
         id="circle78"
         r="70"
         cy="300"
         cx="500"
         transform="translate(-109.59596,133.83838)" />
      <text
         style="font-size:12px;fill:#d3d3d3;font-family:Verdana"
         id="text80"
         font-size="12"
         y="448.83838"
         x="445.40405">1</text>
      <circle
         style="fill:none;stroke:#d3d3d3;stroke-width:1"
         sodipodi:ry="105"
         sodipodi:rx="105"
         sodipodi:cy="300"
         sodipodi:cx="500"
         d="m 605,300 c 0,57.9899 -47.0101,105 -105,105 -57.9899,0 -105,-47.0101 -105,-105 0,-57.9899 47.0101,-105 105,-105 57.9899,0 105,47.0101 105,105 z"
         id="circle82"
         r="105"
         cy="300"
         cx="500"
         transform="translate(-109.59596,133.83838)" />
      <text
         style="font-size:12px;fill:#d3d3d3;font-family:Verdana"
         id="text84"
         font-size="12"
         y="448.83838"
         x="470.40405">1.5</text>
      <circle
         style="fill:none;stroke:#d3d3d3;stroke-width:1"
         sodipodi:ry="140"
         sodipodi:rx="140"
         sodipodi:cy="300"
         sodipodi:cx="500"
         d="m 640,300 c 0,77.31986 -62.68014,140 -140,140 -77.31986,0 -140,-62.68014 -140,-140 0,-77.31986 62.68014,-140 140,-140 77.31986,0 140,62.68014 140,140 z"
         id="circle86"
         r="140"
         cy="300"
         cx="500"
         transform="translate(-109.59596,133.83838)" />
      <text
         style="font-size:12px;fill:#d3d3d3;font-family:Verdana"
         id="text88"
         font-size="12"
         y="448.83838"
         x="515.40405">2</text>
      <line
         style="stroke:#d3d3d3;stroke-width:1"
         id="line90"
         y2="566.98633"
         x2="433.66644"
         y1="433.83838"
         x1="390.40405" />
      <line
         style="stroke:#d3d3d3;stroke-width:1"
         id="line92"
         y2="516.12836"
         x2="277.14166"
         y1="433.83838"
         x1="390.40405" />
      <line
         style="stroke:#d3d3d3;stroke-width:1"
         id="line94"
         y2="351.54846"
         x2="277.14166"
         y1="433.83838"
         x1="390.40405" />
      <line
         style="stroke:#d3d3d3;stroke-width:1"
         id="line96"
         y2="300.69046"
         x2="433.66644"
         y1="433.83838"
         x1="390.40405" />
      <line
         style="stroke:#d3d3d3;stroke-width:1"
         id="line98"
         y2="433.83838"
         x2="530.40405"
         y1="433.83838"
         x1="390.40405" />
      <path
         style="fill:#0000ff;fill-opacity:0.2;stroke:#0000ff;stroke-width:3"
         inkscape:connector-curvature="0"
         id="path120"
         d="m 424.36501,538.35949 -104.74996,-53.0899 4.5305,-99.57082 87.88968,-18.43435 48.36881,66.57396 z" />
      <circle
         style="fill:none;stroke:#d3d3d3;stroke-width:1"
         sodipodi:ry="35"
         sodipodi:rx="35"
         sodipodi:cy="300"
         sodipodi:cx="500"
         d="m 535,300 c 0,19.32997 -15.67003,35 -35,35 -19.32997,0 -35,-15.67003 -35,-35 0,-19.32997 15.67003,-35 35,-35 19.32997,0 35,15.67003 35,35 z"
         id="circle122"
         r="35"
         cy="300"
         cx="500"
         transform="translate(-109.59596,133.83838)" />
      <text
         style="font-size:12px;fill:#d3d3d3;font-family:Verdana"
         id="text124"
         font-size="12"
         y="448.83838"
         x="400.40405">0.5</text>
      <circle
         style="fill:none;stroke:#d3d3d3;stroke-width:1"
         sodipodi:ry="70"
         sodipodi:rx="70"
         sodipodi:cy="300"
         sodipodi:cx="500"
         d="m 570,300 c 0,38.65993 -31.34007,70 -70,70 -38.65993,0 -70,-31.34007 -70,-70 0,-38.65993 31.34007,-70 70,-70 38.65993,0 70,31.34007 70,70 z"
         id="circle126"
         r="70"
         cy="300"
         cx="500"
         transform="translate(-109.59596,133.83838)" />
      <text
         style="font-size:12px;fill:#d3d3d3;font-family:Verdana"
         id="text128"
         font-size="12"
         y="448.83838"
         x="445.40405">1</text>
      <circle
         style="fill:none;stroke:#d3d3d3;stroke-width:1"
         sodipodi:ry="105"
         sodipodi:rx="105"
         sodipodi:cy="300"
         sodipodi:cx="500"
         d="m 605,300 c 0,57.9899 -47.0101,105 -105,105 -57.9899,0 -105,-47.0101 -105,-105 0,-57.9899 47.0101,-105 105,-105 57.9899,0 105,47.0101 105,105 z"
         id="circle130"
         r="105"
         cy="300"
         cx="500"
         transform="translate(-109.59596,133.83838)" />
      <text
         style="font-size:12px;fill:#d3d3d3;font-family:Verdana"
         id="text132"
         font-size="12"
         y="448.83838"
         x="470.40405">1.5</text>
      <circle
         style="fill:none;stroke:#d3d3d3;stroke-width:1"
         sodipodi:ry="140"
         sodipodi:rx="140"
         sodipodi:cy="300"
         sodipodi:cx="500"
         d="m 640,300 c 0,77.31986 -62.68014,140 -140,140 -77.31986,0 -140,-62.68014 -140,-140 0,-77.31986 62.68014,-140 140,-140 77.31986,0 140,62.68014 140,140 z"
         id="circle134"
         r="140"
         cy="300"
         cx="500"
         transform="translate(-109.59596,133.83838)" />
      <text
         style="font-size:12px;fill:#d3d3d3;font-family:Verdana"
         id="text136"
         font-size="12"
         y="448.83838"
         x="515.40405">2</text>
      <line
         style="stroke:#d3d3d3;stroke-width:1"
         id="line138"
         y2="566.98633"
         x2="433.66644"
         y1="433.83838"
         x1="390.40405" />
      <line
         style="stroke:#d3d3d3;stroke-width:1"
         id="line140"
         y2="516.12836"
         x2="277.14166"
         y1="433.83838"
         x1="390.40405" />
      <line
         style="stroke:#d3d3d3;stroke-width:1"
         id="line142"
         y2="351.54846"
         x2="277.14166"
         y1="433.83838"
         x1="390.40405" />
      <line
         style="stroke:#d3d3d3;stroke-width:1"
         id="line144"
         y2="300.69046"
         x2="433.66644"
         y1="433.83838"
         x1="390.40405" />
      <line
         style="stroke:#d3d3d3;stroke-width:1"
         id="line146"
         y2="433.83838"
         x2="530.40405"
         y1="433.83838"
         x1="390.40405" />
      <path
         style="fill:#008000;fill-opacity:0.2;stroke:#008000;stroke-width:3"
         inkscape:connector-curvature="0"
         id="path168"
         d="m 421.33664,529.03914 -101.72159,-43.76955 4.5305,-99.57082 98.70527,-51.72132 60.65322,99.86093 z" />
      <text
         style="font-size:12px;font-weight:bold;font-family:Verdana"
         font-size="12"
         font-weight="bold"
         x="536.89288"
         y="432.93912"
         id="text3246-4">Axe fonctionnel 1</text>
      <text
         style="font-size:12px;font-weight:bold;font-family:Verdana"
         font-size="12"
         font-weight="bold"
         x="439.49152"
         y="581.08997"
         id="text3246-4-7">Axe fonctionnel 2</text>
      <text
         style="font-size:12px;font-weight:bold;font-family:Verdana"
         font-size="12"
         font-weight="bold"
         x="152.62283"
         y="527.55463"
         id="text3246-4-4">Axe fonctionnel 3</text>
      <text
         style="font-size:12px;font-weight:bold;font-family:Verdana"
         font-size="12"
         font-weight="bold"
         x="154.64302"
         y="348.76672"
         id="text3246-4-43">Axe fonctionnel 4</text>
    </g>
  </g>
</svg>
