<?xml version="1.0" encoding="UTF-8" standalone="no"?>
<svg
   xmlns:dc="http://purl.org/dc/elements/1.1/"
   xmlns:cc="http://creativecommons.org/ns#"
   xmlns:rdf="http://www.w3.org/1999/02/22-rdf-syntax-ns#"
   xmlns:svg="http://www.w3.org/2000/svg"
   xmlns="http://www.w3.org/2000/svg"
   xmlns:sodipodi="http://sodipodi.sourceforge.net/DTD/sodipodi-0.dtd"
   xmlns:inkscape="http://www.inkscape.org/namespaces/inkscape"
   width="100%"
   height="100%"
   id="svg2"
   version="1.1"
   inkscape:version="0.48.1 r9760"
   sodipodi:docname="radar.svg">
  <metadata
     id="metadata174">
    <rdf:RDF>
      <cc:Work
         rdf:about="">
        <dc:format>image/svg+xml</dc:format>
        <dc:type
           rdf:resource="http://purl.org/dc/dcmitype/StillImage" />
        <dc:title></dc:title>
      </cc:Work>
    </rdf:RDF>
  </metadata>
  <defs
     id="defs172" />
  <sodipodi:namedview
     pagecolor="#ffffff"
     bordercolor="#666666"
     borderopacity="1"
     objecttolerance="10"
     gridtolerance="10"
     guidetolerance="10"
     inkscape:pageopacity="0"
     inkscape:pageshadow="2"
     inkscape:window-width="1920"
     inkscape:window-height="1145"
     id="namedview170"
     showgrid="false"
     inkscape:zoom="0.99"
     inkscape:cx="372.04724"
     inkscape:cy="526.18109"
     inkscape:window-x="-3"
     inkscape:window-y="-3"
     inkscape:window-maximized="1"
     inkscape:current-layer="svg2" />
  <g
     id="g3148"
     inkscape:export-filename="/home/raph/Drakkr/QSOS/master/QSOS/Method/en/Images/radar.png"
     inkscape:export-xdpi="100"
     inkscape:export-ydpi="100">
    <rect
       y="255.39249"
       x="136.36363"
       height="351.51514"
       width="538.38397"
       id="rect3036"
       style="fill:#ffffff;fill-opacity:1;stroke:none" />
    <g
       transform="translate(691.91919,182.82828)"
       id="g3301">
      <text
         style="font-size:12px;font-weight:bold;font-family:Verdana"
         id="text6"
         font-size="12"
         font-weight="bold"
         x="-109.59596"
         y="133.83833">
        <tspan
           style="fill:#ff0000"
           id="tspan8">Component A</tspan>
      </text>
      <text
         style="font-size:12px;font-weight:bold;font-family:Verdana"
         font-size="12"
         font-weight="bold"
         x="-109.29713"
         y="149.64644"
         id="text3233">
        <tspan
           style="fill:#0000ff"
           id="tspan3235">Component B</tspan>
      </text>
      <text
         style="font-size:12px;font-weight:bold;font-family:Verdana"
         font-size="12"
         font-weight="bold"
         x="-109.08034"
         y="165.45453"
         id="text3240">
        <tspan
           style="fill:#008000"
           id="tspan3242">Component C</tspan>
      </text>
    </g>
    <text
       id="text3246"
       y="293.43436"
       x="434.84848"
       font-weight="bold"
       font-size="12"
       style="font-size:12px;font-weight:bold;font-family:Verdana">Maturity</text>
    <circle
       transform="translate(-109.59596,133.83838)"
       cx="500"
       cy="300"
       r="35"
       id="circle26"
       d="m 535,300 c 0,19.32997 -15.67003,35 -35,35 -19.32997,0 -35,-15.67003 -35,-35 0,-19.32997 15.67003,-35 35,-35 19.32997,0 35,15.67003 35,35 z"
       sodipodi:cx="500"
       sodipodi:cy="300"
       sodipodi:rx="35"
       sodipodi:ry="35"
       style="fill:none;stroke:#d3d3d3;stroke-width:1" />
    <text
       x="400.40405"
       y="448.83838"
       font-size="12"
       id="text28"
       style="font-size:12px;fill:#d3d3d3;font-family:Verdana">0.5</text>
    <circle
       transform="translate(-109.59596,133.83838)"
       cx="500"
       cy="300"
       r="70"
       id="circle30"
       d="m 570,300 c 0,38.65993 -31.34007,70 -70,70 -38.65993,0 -70,-31.34007 -70,-70 0,-38.65993 31.34007,-70 70,-70 38.65993,0 70,31.34007 70,70 z"
       sodipodi:cx="500"
       sodipodi:cy="300"
       sodipodi:rx="70"
       sodipodi:ry="70"
       style="fill:none;stroke:#d3d3d3;stroke-width:1" />
    <text
       x="445.40405"
       y="448.83838"
       font-size="12"
       id="text32"
       style="font-size:12px;fill:#d3d3d3;font-family:Verdana">1</text>
    <circle
       transform="translate(-109.59596,133.83838)"
       cx="500"
       cy="300"
       r="105"
       id="circle34"
       d="m 605,300 c 0,57.9899 -47.0101,105 -105,105 -57.9899,0 -105,-47.0101 -105,-105 0,-57.9899 47.0101,-105 105,-105 57.9899,0 105,47.0101 105,105 z"
       sodipodi:cx="500"
       sodipodi:cy="300"
       sodipodi:rx="105"
       sodipodi:ry="105"
       style="fill:none;stroke:#d3d3d3;stroke-width:1" />
    <text
       x="470.40405"
       y="448.83838"
       font-size="12"
       id="text36"
       style="font-size:12px;fill:#d3d3d3;font-family:Verdana">1.5</text>
    <circle
       transform="translate(-109.59596,133.83838)"
       cx="500"
       cy="300"
       r="140"
       id="circle38"
       d="m 640,300 c 0,77.31986 -62.68014,140 -140,140 -77.31986,0 -140,-62.68014 -140,-140 0,-77.31986 62.68014,-140 140,-140 77.31986,0 140,62.68014 140,140 z"
       sodipodi:cx="500"
       sodipodi:cy="300"
       sodipodi:rx="140"
       sodipodi:ry="140"
       style="fill:none;stroke:#d3d3d3;stroke-width:1" />
    <text
       x="515.40405"
       y="448.83838"
       font-size="12"
       id="text40"
       style="font-size:12px;fill:#d3d3d3;font-family:Verdana">2</text>
    <line
       x1="390.40405"
       y1="433.83838"
       x2="433.66644"
       y2="566.98633"
       id="line42"
       style="stroke:#d3d3d3;stroke-width:1" />
    <line
       x1="390.40405"
       y1="433.83838"
       x2="277.14166"
       y2="516.12836"
       id="line44"
       style="stroke:#d3d3d3;stroke-width:1" />
    <line
       x1="390.40405"
       y1="433.83838"
       x2="277.14166"
       y2="351.54846"
       id="line46"
       style="stroke:#d3d3d3;stroke-width:1" />
    <line
       x1="390.40405"
       y1="433.83838"
       x2="433.66644"
       y2="300.69046"
       id="line48"
       style="stroke:#d3d3d3;stroke-width:1" />
    <line
       x1="390.40405"
       y1="433.83838"
       x2="530.40405"
       y2="433.83838"
       id="line50"
       style="stroke:#d3d3d3;stroke-width:1" />
    <path
       d="m 421.33664,529.03914 -101.72159,-43.76955 -4.53049,-106.15402 107.76626,-45.13812 60.65322,99.86093 z"
       id="path72"
       inkscape:connector-curvature="0"
       style="fill:#ff0000;fill-opacity:0.2;stroke:#ff0000;stroke-width:3" />
    <circle
       transform="translate(-109.59596,133.83838)"
       cx="500"
       cy="300"
       r="35"
       id="circle74"
       d="m 535,300 c 0,19.32997 -15.67003,35 -35,35 -19.32997,0 -35,-15.67003 -35,-35 0,-19.32997 15.67003,-35 35,-35 19.32997,0 35,15.67003 35,35 z"
       sodipodi:cx="500"
       sodipodi:cy="300"
       sodipodi:rx="35"
       sodipodi:ry="35"
       style="fill:none;stroke:#d3d3d3;stroke-width:1" />
    <text
       x="400.40405"
       y="448.83838"
       font-size="12"
       id="text76"
       style="font-size:12px;fill:#d3d3d3;font-family:Verdana">0.5</text>
    <circle
       transform="translate(-109.59596,133.83838)"
       cx="500"
       cy="300"
       r="70"
       id="circle78"
       d="m 570,300 c 0,38.65993 -31.34007,70 -70,70 -38.65993,0 -70,-31.34007 -70,-70 0,-38.65993 31.34007,-70 70,-70 38.65993,0 70,31.34007 70,70 z"
       sodipodi:cx="500"
       sodipodi:cy="300"
       sodipodi:rx="70"
       sodipodi:ry="70"
       style="fill:none;stroke:#d3d3d3;stroke-width:1" />
    <text
       x="445.40405"
       y="448.83838"
       font-size="12"
       id="text80"
       style="font-size:12px;fill:#d3d3d3;font-family:Verdana">1</text>
    <circle
       transform="translate(-109.59596,133.83838)"
       cx="500"
       cy="300"
       r="105"
       id="circle82"
       d="m 605,300 c 0,57.9899 -47.0101,105 -105,105 -57.9899,0 -105,-47.0101 -105,-105 0,-57.9899 47.0101,-105 105,-105 57.9899,0 105,47.0101 105,105 z"
       sodipodi:cx="500"
       sodipodi:cy="300"
       sodipodi:rx="105"
       sodipodi:ry="105"
       style="fill:none;stroke:#d3d3d3;stroke-width:1" />
    <text
       x="470.40405"
       y="448.83838"
       font-size="12"
       id="text84"
       style="font-size:12px;fill:#d3d3d3;font-family:Verdana">1.5</text>
    <circle
       transform="translate(-109.59596,133.83838)"
       cx="500"
       cy="300"
       r="140"
       id="circle86"
       d="m 640,300 c 0,77.31986 -62.68014,140 -140,140 -77.31986,0 -140,-62.68014 -140,-140 0,-77.31986 62.68014,-140 140,-140 77.31986,0 140,62.68014 140,140 z"
       sodipodi:cx="500"
       sodipodi:cy="300"
       sodipodi:rx="140"
       sodipodi:ry="140"
       style="fill:none;stroke:#d3d3d3;stroke-width:1" />
    <text
       x="515.40405"
       y="448.83838"
       font-size="12"
       id="text88"
       style="font-size:12px;fill:#d3d3d3;font-family:Verdana">2</text>
    <line
       x1="390.40405"
       y1="433.83838"
       x2="433.66644"
       y2="566.98633"
       id="line90"
       style="stroke:#d3d3d3;stroke-width:1" />
    <line
       x1="390.40405"
       y1="433.83838"
       x2="277.14166"
       y2="516.12836"
       id="line92"
       style="stroke:#d3d3d3;stroke-width:1" />
    <line
       x1="390.40405"
       y1="433.83838"
       x2="277.14166"
       y2="351.54846"
       id="line94"
       style="stroke:#d3d3d3;stroke-width:1" />
    <line
       x1="390.40405"
       y1="433.83838"
       x2="433.66644"
       y2="300.69046"
       id="line96"
       style="stroke:#d3d3d3;stroke-width:1" />
    <line
       x1="390.40405"
       y1="433.83838"
       x2="530.40405"
       y2="433.83838"
       id="line98"
       style="stroke:#d3d3d3;stroke-width:1" />
    <path
       d="m 424.36501,538.35949 -104.74996,-53.0899 4.5305,-99.57082 87.88968,-18.43435 48.36881,66.57396 z"
       id="path120"
       inkscape:connector-curvature="0"
       style="fill:#0000ff;fill-opacity:0.2;stroke:#0000ff;stroke-width:3" />
    <circle
       transform="translate(-109.59596,133.83838)"
       cx="500"
       cy="300"
       r="35"
       id="circle122"
       d="m 535,300 c 0,19.32997 -15.67003,35 -35,35 -19.32997,0 -35,-15.67003 -35,-35 0,-19.32997 15.67003,-35 35,-35 19.32997,0 35,15.67003 35,35 z"
       sodipodi:cx="500"
       sodipodi:cy="300"
       sodipodi:rx="35"
       sodipodi:ry="35"
       style="fill:none;stroke:#d3d3d3;stroke-width:1" />
    <text
       x="400.40405"
       y="448.83838"
       font-size="12"
       id="text124"
       style="font-size:12px;fill:#d3d3d3;font-family:Verdana">0.5</text>
    <circle
       transform="translate(-109.59596,133.83838)"
       cx="500"
       cy="300"
       r="70"
       id="circle126"
       d="m 570,300 c 0,38.65993 -31.34007,70 -70,70 -38.65993,0 -70,-31.34007 -70,-70 0,-38.65993 31.34007,-70 70,-70 38.65993,0 70,31.34007 70,70 z"
       sodipodi:cx="500"
       sodipodi:cy="300"
       sodipodi:rx="70"
       sodipodi:ry="70"
       style="fill:none;stroke:#d3d3d3;stroke-width:1" />
    <text
       x="445.40405"
       y="448.83838"
       font-size="12"
       id="text128"
       style="font-size:12px;fill:#d3d3d3;font-family:Verdana">1</text>
    <circle
       transform="translate(-109.59596,133.83838)"
       cx="500"
       cy="300"
       r="105"
       id="circle130"
       d="m 605,300 c 0,57.9899 -47.0101,105 -105,105 -57.9899,0 -105,-47.0101 -105,-105 0,-57.9899 47.0101,-105 105,-105 57.9899,0 105,47.0101 105,105 z"
       sodipodi:cx="500"
       sodipodi:cy="300"
       sodipodi:rx="105"
       sodipodi:ry="105"
       style="fill:none;stroke:#d3d3d3;stroke-width:1" />
    <text
       x="470.40405"
       y="448.83838"
       font-size="12"
       id="text132"
       style="font-size:12px;fill:#d3d3d3;font-family:Verdana">1.5</text>
    <circle
       transform="translate(-109.59596,133.83838)"
       cx="500"
       cy="300"
       r="140"
       id="circle134"
       d="m 640,300 c 0,77.31986 -62.68014,140 -140,140 -77.31986,0 -140,-62.68014 -140,-140 0,-77.31986 62.68014,-140 140,-140 77.31986,0 140,62.68014 140,140 z"
       sodipodi:cx="500"
       sodipodi:cy="300"
       sodipodi:rx="140"
       sodipodi:ry="140"
       style="fill:none;stroke:#d3d3d3;stroke-width:1" />
    <text
       x="515.40405"
       y="448.83838"
       font-size="12"
       id="text136"
       style="font-size:12px;fill:#d3d3d3;font-family:Verdana">2</text>
    <line
       x1="390.40405"
       y1="433.83838"
       x2="433.66644"
       y2="566.98633"
       id="line138"
       style="stroke:#d3d3d3;stroke-width:1" />
    <line
       x1="390.40405"
       y1="433.83838"
       x2="277.14166"
       y2="516.12836"
       id="line140"
       style="stroke:#d3d3d3;stroke-width:1" />
    <line
       x1="390.40405"
       y1="433.83838"
       x2="277.14166"
       y2="351.54846"
       id="line142"
       style="stroke:#d3d3d3;stroke-width:1" />
    <line
       x1="390.40405"
       y1="433.83838"
       x2="433.66644"
       y2="300.69046"
       id="line144"
       style="stroke:#d3d3d3;stroke-width:1" />
    <line
       x1="390.40405"
       y1="433.83838"
       x2="530.40405"
       y2="433.83838"
       id="line146"
       style="stroke:#d3d3d3;stroke-width:1" />
    <path
       d="m 421.33664,529.03914 -101.72159,-43.76955 4.5305,-99.57082 98.70527,-51.72132 60.65322,99.86093 z"
       id="path168"
       inkscape:connector-curvature="0"
       style="fill:#008000;fill-opacity:0.2;stroke:#008000;stroke-width:3" />
    <text
       id="text3246-4"
       y="432.93912"
       x="536.89288"
       font-weight="bold"
       font-size="12"
       style="font-size:12px;font-weight:bold;font-family:Verdana">Functional axis 1</text>
    <text
       id="text3246-4-7"
       y="581.08997"
       x="439.49152"
       font-weight="bold"
       font-size="12"
       style="font-size:12px;font-weight:bold;font-family:Verdana">Functional axis 2</text>
    <text
       id="text3246-4-4"
       y="527.55463"
       x="152.62283"
       font-weight="bold"
       font-size="12"
       style="font-size:12px;font-weight:bold;font-family:Verdana">Functional axis 3</text>
    <text
       id="text3246-4-43"
       y="348.76672"
       x="154.64302"
       font-weight="bold"
       font-size="12"
       style="font-size:12px;font-weight:bold;font-family:Verdana">Functional axis 4</text>
  </g>
</svg>
